<svg id="Layer_1" enable-background="new 0 0 48 48" height="512" viewBox="0 0 48 48" width="512" xmlns="http://www.w3.org/2000/svg"><g><path d="m10 16.5c.44 0 .87-.2 1.15-.54 1.02-1.22 4.35-5.41 4.35-7.96 0-3.03-2.47-5.5-5.5-5.5s-5.5 2.47-5.5 5.5c0 2.55 3.33 6.74 4.35 7.96.28.34.71.54 1.15.54zm0-11c1.38 0 2.5 1.12 2.5 2.5 0 .78-1.15 2.74-2.5 4.57-1.35-1.83-2.5-3.79-2.5-4.57 0-1.38 1.12-2.5 2.5-2.5z"/><path d="m38 31.5c-3.03 0-5.5 2.47-5.5 5.5 0 2.55 3.33 6.74 4.35 7.96.29.34.71.54 1.15.54s.87-.2 1.15-.54c1.02-1.22 4.35-5.41 4.35-7.96 0-3.03-2.47-5.5-5.5-5.5zm0 10.07c-1.35-1.83-2.5-3.79-2.5-4.57 0-1.38 1.12-2.5 2.5-2.5s2.5 1.12 2.5 2.5c0 .78-1.15 2.74-2.5 4.57z"/><path d="m32 42.5h-20c-2.48 0-4.5-2.02-4.5-4.5s2.02-4.5 4.5-4.5h12c4.14 0 7.5-3.36 7.5-7.5s-3.36-7.5-7.5-7.5h-11c-.83 0-1.5.67-1.5 1.5s.67 1.5 1.5 1.5h11c2.48 0 4.5 2.02 4.5 4.5s-2.02 4.5-4.5 4.5h-12c-4.14 0-7.5 3.36-7.5 7.5s3.36 7.5 7.5 7.5h20c.83 0 1.5-.67 1.5-1.5s-.67-1.5-1.5-1.5z"/></g></svg>