<svg id="Capa_1" enable-background="new 0 0 512 512" height="512" viewBox="0 0 512 512" width="512" xmlns="http://www.w3.org/2000/svg"><g><path d="m426.663 422c-18.614 0-27.321-3.265-37.402-7.045-11.194-4.198-23.881-8.955-47.935-8.955-24.053 0-36.74 4.758-47.934 8.955-10.08 3.78-18.786 7.045-37.399 7.045-18.612 0-27.318-3.265-37.398-7.045-11.193-4.197-23.88-8.955-47.933-8.955s-36.74 4.758-47.933 8.955c-10.08 3.78-18.786 7.045-37.398 7.045s-27.318-3.265-37.398-7.045c-11.194-4.197-23.88-8.955-47.933-8.955v30c18.613 0 27.318 3.265 37.398 7.045 11.194 4.197 23.88 8.955 47.933 8.955s36.739-4.758 47.933-8.955c10.08-3.78 18.786-7.045 37.399-7.045s27.318 3.265 37.398 7.045c11.193 4.197 23.879 8.955 47.932 8.955s36.74-4.758 47.933-8.955c10.081-3.78 18.787-7.045 37.4-7.045 18.614 0 27.321 3.265 37.402 7.045 11.194 4.198 23.881 8.955 47.935 8.955s36.741-4.757 47.935-8.955c10.081-3.78 18.788-7.045 37.402-7.045v-30c-24.054 0-36.741 4.757-47.935 8.955-10.081 3.78-18.788 7.045-37.402 7.045z"/><path d="m426.663 482c-18.614 0-27.321-3.265-37.402-7.045-11.194-4.198-23.881-8.955-47.935-8.955-24.053 0-36.74 4.758-47.934 8.955-10.08 3.78-18.786 7.045-37.399 7.045-18.612 0-27.318-3.265-37.398-7.045-11.193-4.197-23.88-8.955-47.933-8.955s-36.74 4.758-47.933 8.955c-10.08 3.78-18.786 7.045-37.398 7.045s-27.318-3.265-37.398-7.045c-11.194-4.197-23.88-8.955-47.933-8.955v30c18.613 0 27.318 3.265 37.398 7.045 11.194 4.197 23.88 8.955 47.933 8.955s36.739-4.758 47.933-8.955c10.08-3.78 18.786-7.045 37.399-7.045s27.318 3.265 37.398 7.045c11.193 4.197 23.879 8.955 47.932 8.955s36.74-4.758 47.933-8.955c10.081-3.78 18.787-7.045 37.4-7.045 18.614 0 27.321 3.265 37.402 7.045 11.194 4.198 23.881 8.955 47.935 8.955s36.741-4.757 47.935-8.955c10.081-3.78 18.788-7.045 37.402-7.045v-30c-24.054 0-36.741 4.757-47.935 8.955-10.081 3.78-18.788 7.045-37.402 7.045z"/><path d="m464.065 8.955c-10.081 3.78-18.788 7.045-37.402 7.045s-27.321-3.265-37.402-7.045c-11.194-4.198-23.881-8.955-47.935-8.955-24.053 0-36.74 4.758-47.934 8.955-10.079 3.78-18.786 7.045-37.399 7.045-18.612 0-27.318-3.265-37.398-7.045-11.193-4.197-23.88-8.955-47.932-8.955-24.053 0-36.74 4.758-47.933 8.955-10.081 3.78-18.786 7.045-37.399 7.045s-27.318-3.265-37.398-7.045c-11.194-4.197-23.88-8.955-47.933-8.955v30c18.613 0 27.318 3.265 37.398 7.045 11.194 4.197 23.88 8.955 47.933 8.955s36.739-4.758 47.933-8.955c10.08-3.78 18.786-7.045 37.399-7.045s27.318 3.265 37.398 7.045c11.193 4.197 23.879 8.955 47.932 8.955s36.74-4.758 47.933-8.955c10.081-3.78 18.787-7.045 37.4-7.045 18.614 0 27.321 3.265 37.402 7.045 11.194 4.198 23.881 8.955 47.935 8.955s36.741-4.757 47.935-8.955c10.081-3.78 18.788-7.045 37.402-7.045v-30c-24.054 0-36.741 4.757-47.935 8.955z"/><path d="m131.537 295.203-21.214 21.214 56.38 56.379 56.38-56.379-21.213-21.214-20.167 20.167v-196.74l20.167 20.166 21.213-21.213-56.38-56.38-56.38 56.38 21.214 21.213 20.166-20.166v196.74z"/><path d="m286.529 333h116.195v30h-116.195z"/><path d="m286.529 273h82.679v30h-82.679z"/><path d="m286.529 213h116.195v30h-116.195z"/><path d="m286.529 153h82.679v30h-82.679z"/><path d="m286.529 93h116.195v30h-116.195z"/></g></svg>