<?xml version="1.0"?>
<svg xmlns="http://www.w3.org/2000/svg" xmlns:xlink="http://www.w3.org/1999/xlink" xmlns:svgjs="http://svgjs.com/svgjs" version="1.1" width="512" height="512" x="0" y="0" viewBox="0 0 16 16" style="enable-background:new 0 0 512 512" xml:space="preserve"><g><path xmlns="http://www.w3.org/2000/svg" d="m5.41421 1.17157c1.17157 1.17157 1.17157 3.07107 0 4.24264s-3.07107 1.17157-4.24264 0c-1.17157-1.17157-1.17157-3.07107 0-4.24264 1.17157-1.17157 3.07107-1.17157 4.24264 0" transform="translate(4.707 4.707)" fill="#f24849" data-original="#000000"/><path xmlns="http://www.w3.org/2000/svg" d="m16 7h-1.07983c-.440613-3.05908-2.86108-5.47955-5.92017-5.92017v-1.07983h-2v1.07983c-3.05908.440613-5.47955 2.86108-5.92017 5.92017h-1.07983v2h1.07983c.440613 3.05908 2.86108 5.47955 5.92017 5.92017v1.07983h2v-1.07983c3.05908-.440613 5.47955-2.86108 5.92017-5.92017h1.07983zm-8 6c-2.75684 0-5-2.24316-5-5s2.24316-5 5-5 5 2.24316 5 5-2.24316 5-5 5z" fill="#f24849" data-original="#000000"/></g></svg>
