<svg id="Capa_1" enable-background="new 0 0 511.997 511.997" height="512" viewBox="0 0 511.997 511.997" width="512" xmlns="http://www.w3.org/2000/svg"><path d="m502.203 370.841-4.768-1.769c-36.834-13.67-78.583-29.165-120.939-29.165-1.914 0-6.212.025-6.479-.031-73.259-15.51-126.431-81.118-126.431-156.002 0-3.89.159-7.776.443-11.652.969 1.579 1.917 3.175 2.831 4.797 13.094 23.23 34.835 38.14 61.219 41.982 4.38.638 8.705.955 12.97.955 10.73 0 21.068-2.015 30.861-6.027 13.28-5.44 22.99-15.97 27.34-29.647s2.507-27.881-5.191-39.994c-20.831-32.779-49.722-60.148-83.55-79.151-34.913-19.612-74.655-29.979-114.928-29.979-33.071 0-65.055 6.74-95.064 20.032-28.974 12.834-54.699 31.116-76.459 54.34-5.345 5.704-5.413 14.558-.156 20.344s14.077 6.563 20.266 1.787c26.477-20.433 58.188-31.232 91.703-31.232 38.598 0 75.168 14.911 102.642 40.569-3.264 14.049-4.927 28.446-4.927 42.877 0 43.292 15.012 85.656 42.27 119.29 17.004 20.981 38.32 38.002 62.232 50.017-2.397.896-4.784 1.799-7.16 2.7-19.019 7.213-36.982 14.025-54.929 14.025s-35.911-6.813-54.929-14.025c-20.709-7.854-42.124-15.975-65.568-15.975-43.636 0-84.679 15.47-124.372 30.431l-1.415.533c-7.752 2.921-11.668 11.574-8.747 19.326s11.573 11.669 19.326 8.746l1.417-.534c38.889-14.657 75.621-28.502 113.791-28.502 17.947 0 35.912 6.813 54.93 14.025 20.709 7.854 42.123 15.975 65.567 15.975s44.858-8.121 65.567-15.975c19.019-7.213 36.983-14.025 54.93-14.025 36.969 0 74.35 13.874 110.5 27.291l4.787 1.775c1.718.636 3.478.938 5.208.938 6.096 0 11.827-3.743 14.068-9.794 2.877-7.768-1.088-16.398-8.856-19.276zm-326.621-305.683c70.536 0 135.268 35.597 173.158 95.22 2.974 4.681 3.603 9.526 1.922 14.812s-4.993 8.878-10.125 10.98c-8.652 3.545-18.118 4.604-28.134 3.145-17.229-2.509-30.855-11.854-39.408-27.025-30.051-53.313-85.127-87.626-145.66-91.494 15.581-3.725 31.744-5.638 48.247-5.638z"/><path d="m419.338 447.818-.357-.136c-21.791-8.302-54.72-20.847-83.983-20.847-16.094 0-30.715 5.586-44.854 10.988-12.13 4.634-23.588 9.012-34.146 9.012-10.559 0-22.016-4.378-34.146-9.012-14.139-5.402-28.759-10.988-44.854-10.988-25.122 0-41.314 5.75-68.142 15.275-4.805 1.706-10.02 3.559-15.771 5.552-7.827 2.714-11.973 11.259-9.259 19.086 2.149 6.201 7.958 10.091 14.172 10.091 1.629 0 3.288-.268 4.914-.831 5.829-2.021 11.114-3.897 15.983-5.627 26.195-9.301 38.15-13.546 58.104-13.546 10.559 0 22.016 4.378 34.146 9.012 14.139 5.402 28.759 10.988 44.854 10.988s30.715-5.586 44.854-10.988c12.13-4.634 23.588-9.012 34.146-9.012 23.742 0 53.567 11.362 73.303 18.881l.357.137c7.742 2.946 16.407-.937 19.357-8.678 2.949-7.741-.936-16.408-8.678-19.357z"/></svg>